<svg xmlns="http://www.w3.org/2000/svg" viewBox="0 0 32 32" fill="#767676"><path d="M21.382 9.586l1.517.3a1.687 1.687 0 0 0 2.076-1.232l1.191-3.574L17.5 3.929V4.5a1.5 1.5 0 0 1-3 0v-.571L5.834 5.084l1.191 3.574A1.684 1.684 0 0 0 9.1 9.89l1.518-.3.864 3.891L6.814 28h18.372l-4.668-14.523zM8.186 27l.321-1h14.986l.321 1zm14.986-2H8.828l3.69-11.477-1.136-5.109-2.479.5a.711.711 0 0 1-.928-.567l-.809-2.431 6.4-.853a2.5 2.5 0 0 0 4.874 0l6.4.853-.809 2.426a.71.71 0 0 1-.929.567l-2.478-.5-1.136 5.109z"/></svg>