<svg xmlns="http://www.w3.org/2000/svg" viewBox="0 0 32 32" fill="#767676"><path d="M30 21v-5.5a2.5 2.5 0 0 0-2.5-2.5h-1.662l-1.622-4.057A1.493 1.493 0 0 0 22.823 8h-12.2a1.492 1.492 0 0 0-1.342.829L7.191 13H3.5A2.5 2.5 0 0 0 1 15.5v5A1.5 1.5 0 0 0 2.5 22h.551a3.483 3.483 0 0 0 6.9 0h10.1a3.483 3.483 0 0 0 6.9 0H31v-1zM10.171 9.275A.5.5 0 0 1 10.618 9h12.205a.5.5 0 0 1 .464.314L24.762 13H11.809l.5-1H14a.5.5 0 0 0 0-1h-2a.5.5 0 0 0-.447.276L10.691 13H8.309zM6.5 24A2.5 2.5 0 1 1 9 21.5 2.5 2.5 0 0 1 6.5 24zm17 0a2.5 2.5 0 1 1 2.5-2.5 2.5 2.5 0 0 1-2.5 2.5zm3.449-3a3.483 3.483 0 0 0-6.9 0h-10.1a3.483 3.483 0 0 0-6.9 0H2.5a.5.5 0 0 1-.5-.5v-5A1.5 1.5 0 0 1 3.5 14h24a1.5 1.5 0 0 1 1.5 1.5V21z"/></svg>